<svg xmlns="http://www.w3.org/2000/svg" viewBox="0 0 1080 1080"><defs><style>.cls-1{fill:#9c42c6;}.cls-2{fill:#ffb552;}</style></defs><g id="Secondary"><path class="cls-1" d="M862.52,456.73c-.08-22.64-.12-47.62-2.12-70.15-2.45-31.25-7.65-62.81-18.67-92.81l-.61-1.65L839.94,291c-5.49-5.21-11.43-11.94-20.25-12-7.92-.91-24.33-.07-34.69,3.94-33.34,10.95-56.6,40.33-79.4,63.85-24.71,34.76-60.14,67.18-68.85,111.31-4.14,12.24-4.93,30.27-8.82,42.89-1.59,1.36-4,2.9-5.58,2.92a491.78,491.78,0,0,0-79.52.4c-26.54,2.27-52.82,6.4-78.88,11.24-6.07.21-16.66-8-16.41-16.8a111.62,111.62,0,0,0-5.34-41.32c-13.29-39.89-44.45-70.17-72.13-100.11-33.42-39.31-99.85-89.45-147.38-43.65-9.22,55-6.29,112.11,9.39,165.65a441.61,441.61,0,0,0,18.56,51.88c1.42,2.66.81,13.8.24,21.69-.72,9.6-.08,20.72,6.09,29.17l.43.43,24.88,24.46.31.31c24.17,19.62,61.89,23.39,72.68,55.15C371,725.55,381.94,796.14,428.4,845.4c5.86,28.23,27.85,67,59.36,79.9,2.5,1.82,7.18,5.55,8.13,6.33,30,37,88.53,32.11,116-2.07,16.85-5.89,31.1-17.62,41.85-31.45a133.17,133.17,0,0,0,23.11-46.43c51-59.48,67.14-139,81.54-213.41l.13-1.46c0,.13,0-.16.36-.79,1.58-2.81,4.09-5.1,6.68-7.76,25.56-17,58.22-29.78,75-57.77,14.49-23.1,7.73-52.8,7.13-78.26l0-2.73v-.68l0-.12c0-.08-.07-.14,0-.24.34-1.83,6.15-7.4,8.62-10s5.53-7.49,6-11.92C862.74,463.75,862.36,459.58,862.52,456.73ZM845.93,464c0,.33-.06.21,0,.34a1.63,1.63,0,0,1-.19.62c-3.71,6.1-14.47,13-14.44,22.55l-.09,1.32v.77l.05,3.08c.19,22.12,7.34,49.76-4.68,69.55-15.45,25-46.11,36.42-70.51,53.11-6,5.55-13,12.14-13.35,21.48l.13-1.46c-13.38,73.65-27.34,150.5-75.55,209.92l-.87,1.07-.29,1.22A127.47,127.47,0,0,1,646,892.26c-9.6,13.31-22.35,24.55-37.57,30.54l-.95.42-.47.49c-25.22,34.42-80,38.72-108.4,5.93-3-2.4-6.36-4.41-9.39-6.8-31.55-14.53-49.54-47.21-57.37-79.78-43.45-50.81-51.78-120.67-65.8-183.69-8.63-34.67-52.79-44.61-74.57-61.69,0,0-22.68-23.06-23.84-24.25-3.13-5-3.45-11.83-2.77-19.66.7-9.06,2.19-18.22-.74-27.78A435.25,435.25,0,0,1,246,475.25c-14.7-50.79-18.64-104.18-13.19-156.75,29.61-30,75.89-8.23,104.06,14.26,11,8.2,20.14,17.94,29.36,28.08,18.7,20,38.18,39.42,53.3,62,15.21,22.12,24.73,48.66,22.45,75.66a23.84,23.84,0,0,0,22.52,22.93c26.15-4.52,52.46-8.23,78.88-9.72a476.93,476.93,0,0,1,78.56,1.57c6.16,0,10.36-3.07,14.51-6.92,5.65-15.76,6.05-32.11,11-45.93,10-42.23,44.16-71.33,69.28-105.75,25-24.56,58.72-66.58,102.23-60.52,1.37,0,2.71.89,4.13,2.07a62.8,62.8,0,0,1,4.71,4.4c14.78,42.26,17.63,88.26,18,133.05,0,5.07.27,24,.17,28.9Z"/><path class="cls-2" d="M392.94,305.24c.63,2.23,1.39,3.32,1.71,4.52,14.66,43.17,30.6,86.21,47.08,128.7,2.26,4.88,3.8,15.39,11.63,12.91,2.68-1.08,3.68-2.38,4.74-3.05,14.66-9.41,33.6-11.79,50.61-15.11,23.92-3.81,48.27-3.92,72.39-1.71,12,1.11,24.12,2.69,35.28,7.16,5.14,1.84,9.51,4.65,14.35,7.15a3.64,3.64,0,0,0,3.71-.63c1.75-1.89,1.69-3.46,2.29-4.84,12.42-38.11,25.85-78.94,38.71-117.1l5.78-17.33c.26-1,1.15-3.32,1.37-4.07.35-1.27,1.79-2.85,1.26-6.55-1.14-3.6-3.87-5.75-8-5.14a7.38,7.38,0,0,0-3.82,2.44c-.72.8-1.18,1.47-1.53,1.87l-50.6,52.24C613.4,353,605.6,361,603,370.62a8.77,8.77,0,0,1-1.2,2.78c-2.72,4-10.17,3.25-13.35.38s-4-10.4-.9-13.37a10.28,10.28,0,0,1,2.65-1.58c10.11-4.68,8.67-14,5.44-21.91-12.37-36.47-25.79-76.14-38.67-112.27l-6.14-17.21c-2.39-5.22-2.67-14.46-10.16-14.16-3-.21-6.09,3.09-6.72,5.49-4,11.77-7.62,23.22-11.41,34.87-7.72,24.27-26.1,80.84-33.92,104.27l-2.93,8.67c-2.21,6.1.86,9,6.23,10.87a10.82,10.82,0,0,1,6,10.77c.85,13.65-16.32,20.32-24.19,8.74-2.76-3.59-3.17-8.55-5.82-12.37-2.08-2.79-13.51-13.6-16.07-16.43-11.69-11.86-33.44-34-44.88-45.58-2.67-3-6.27-7.26-10.8-4.62C393.46,299.05,392.12,302.77,392.94,305.24Zm6.26-2.11a1.92,1.92,0,0,1,.64.4,17.35,17.35,0,0,1,1.43,1.38c.57.6,1.26,1.22,1.76,1.68l6.72,6.2C418.19,320.58,441.39,342,450,350l13.37,12.45c5.29,3.81,5.43,10.36,9.21,15.32,8.81,12.25,27,5.32,26.22-9.49a11.91,11.91,0,0,0-6.46-11.79c-4.88-1.84-7.6-4.06-5.53-9.5,9.81-28.2,31-82.5,41.62-111.23,4.12-10.6,8.21-21.68,12.24-32.1C553.32,244.79,569,290,583,331.58l2.94,8.65c1,2.93,2,5.78,2,7.13s-.86,1.51-2.31,2.42c-12.29,5.1-12.88,23-3.61,31.35,8.09,6.66,21.21,6.55,27.57-2.32,1.17-1.42,2-4.08,2.46-5.54,2.37-8.27,8.14-13.8,14.4-20.21,16.62-17.57,32.41-34.65,48.94-52.54-.11.37-.21.73-.31,1.05-13.53,45.16-27.06,93-41.36,137.82-.46,1.42-.9,3.11-1.34,3.43-1.43.14-4.13-2.23-6.37-3.15-36.18-19-138.76-18.82-173.88,3.82l-2.82-7.82c-15.82-44-32.9-88.92-50.16-132.45C399.2,303.16,399.21,303.14,399.2,303.13Z"/><path class="cls-2" d="M536.16,180c1,1.21,1.63,2.41,2.63,3.73a2.78,2.78,0,0,0,4.45-.42c4.47-7.7,11.22-14,16-21.51.89-1.32,1.5-2.31,2.44-4,1.61-2.85.53-6.68-1.46-8.81-.81-1.17-3.23-4.15-4.08-5.34a105.4,105.4,0,0,1-11.94-18.8,3.82,3.82,0,0,0-2.66-2.1c-3.28-.83-5,3-6.46,4.94-4,5.63-8.33,12.89-12,18.8C520.6,150,518.3,155,521.32,159,525.52,166.49,531,173.2,536.16,180Zm-7.23-30.2c3.2-6.17,7.22-13.62,10-19.94.31-.73,1.5-3.27,1.62-3.67a.76.76,0,0,1,1.34.1c6.19,8.06,10.67,17.84,15,27a2.49,2.49,0,0,1-.21,1.9c-5.7,8.53-8.49,19.1-13.95,27.76a1.94,1.94,0,0,1-3.16.14c-2-3.88-3.54-8.25-5.17-12.34a127.75,127.75,0,0,0-7.51-15.87C526.39,153.12,528.3,151.62,528.93,149.81Z"/><path class="cls-2" d="M687.82,282.44c5.49-2.41,11.13-4.6,16-8.08,3.35-1.68,3.73-6.06,3.07-9.28a161.29,161.29,0,0,0-2.56-16.88,17.57,17.57,0,0,0-.47-2,3.23,3.23,0,0,0-4.95-1.31c-5.11,4.44-11.3,7.33-17.48,10a6.12,6.12,0,0,0-4,5.73c.2,7.53,4.11,14.17,4.69,21.52C683,285.59,685.91,283.33,687.82,282.44Zm-4.56-22.53c5-4.4,11.78-10.91,17.33-12.53a17.88,17.88,0,0,0-.25,2.65,183.49,183.49,0,0,0,0,18.47c-1.39,1.09-3.31,2.49-4.64,3.63-4,3.23-7.2,7.66-11.17,10.9a1.19,1.19,0,0,1-1.77-.92C682.07,274.89,684.09,267.1,683.26,259.91Z"/><path class="cls-2" d="M371.49,278.86c4.92,3.48,10.57,5.67,16.05,8.08,1.93.9,4.84,3.14,5.68-.27.58-7.35,4.49-14,4.69-21.52a6.14,6.14,0,0,0-4-5.73c-6.18-2.67-12.37-5.56-17.49-10a3.24,3.24,0,0,0-4.95,1.32,17.57,17.57,0,0,0-.47,2,164,164,0,0,0-2.55,16.88C367.75,272.8,368.15,277.17,371.49,278.86Zm20.62-14.45c-.83,7.19,1.18,15,.47,22.2a1.2,1.2,0,0,1-1.78.91,77.48,77.48,0,0,1-6.64-6.56,61.47,61.47,0,0,0-9.17-8,183.5,183.5,0,0,0,0-18.47c0-.15-.11-2.3-.2-2.64C380.36,253.53,387.16,260,392.11,264.41Z"/></g></svg>